{
  "accessors": [
    {
      "bufferView": 2,
      "componentType": 5126,
      "count": 388,
      "max": [
        -42.552978515625,
        152.55979919433594,
        36.231418609619141
      ],
      "min": [
        -55.166309356689453,
        -0.1214200034737587,
        17.978689193725586
      ],
      "type": "VEC3"
    },
    {
      "bufferView": 2,
      "byteOffset": 4656,
      "componentType": 5126,
      "count": 388,
      "max": [
        1,
        0.92388147115707397,
        1
      ],
      "min": [
        -1,
        -0.92388147115707397,
        -1
      ],
      "type": "VEC3"
    },
    {
      "bufferView": 3,
      "componentType": 5126,
      "count": 388,
      "max": [
        1,
        1,
        0.9792371392250061,
        1
      ],
      "min": [
        -0.99998396635055542,
        -1,
        -0.99993050098419189,
        -1
      ],
      "type": "VEC4"
    },
    {
      "bufferView": 1,
      "componentType": 5126,
      "count": 388,
      "max": [
        1.0000900030136108,
        0.98611998558044434
      ],
      "min": [
        -0.0019199999514967203,
        0.0050800000317394733
      ],
      "type": "VEC2"
    },
    {
      "bufferView": 0,
      "componentType": 5125,
      "count": 948,
      "max": [
        387
      ],
      "min": [
        0
      ],
      "type": "SCALAR"
    },
    {
      "bufferView": 2,
      "byteOffset": 9312,
      "componentType": 5126,
      "count": 916,
      "max": [
        69.935966491699219,
        -3.7821199893951416,
        33.740421295166016
      ],
      "min": [
        -74.404502868652344,
        -153.11917114257812,
        1.0041600465774536
      ],
      "type": "VEC3"
    },
    {
      "bufferView": 2,
      "byteOffset": 20304,
      "componentType": 5126,
      "count": 916,
      "max": [
        0.99852579832077026,
        0.99999850988388062,
        1
      ],
      "min": [
        -0.995502769947052,
        -0.999164879322052,
        -1
      ],
      "type": "VEC3"
    },
    {
      "bufferView": 3,
      "byteOffset": 6208,
      "componentType": 5126,
      "count": 916,
      "max": [
        0.99999868869781494,
        1,
        1,
        1
      ],
      "min": [
        -1,
        -0.99999994039535522,
        -1,
        -1
      ],
      "type": "VEC4"
    },
    {
      "bufferView": 1,
      "byteOffset": 3104,
      "componentType": 5126,
      "count": 916,
      "max": [
        1.004770040512085,
        0.99782001972198486
      ],
      "min": [
        -0.0013699999544769526,
        0.0050699999555945396
      ],
      "type": "VEC2"
    },
    {
      "bufferView": 0,
      "byteOffset": 3792,
      "componentType": 5125,
      "count": 2772,
      "max": [
        915
      ],
      "min": [
        0
      ],
      "type": "SCALAR"
    },
    {
      "bufferView": 2,
      "byteOffset": 31296,
      "componentType": 5126,
      "count": 229,
      "max": [
        67.87396240234375,
        -10.832779884338379,
        15.111300468444824
      ],
      "min": [
        -72.342483520507812,
        -151.04922485351562,
        4.4730300903320312
      ],
      "type": "VEC3"
    },
    {
      "bufferView": 2,
      "byteOffset": 34044,
      "componentType": 5126,
      "count": 229,
      "max": [
        0.61917585134506226,
        0.50540363788604736,
        -0.60100632905960083
      ],
      "min": [
        -0.60321635007858276,
        -0.58687955141067505,
        -0.99999707937240601
      ],
      "type": "VEC3"
    },
    {
      "bufferView": 3,
      "byteOffset": 20864,
      "componentType": 5126,
      "count": 229,
      "max": [
        1,
        0.041625719517469406,
        0.76293087005615234,
        1
      ],
      "min": [
        -0.25884026288986206,
        -0.87587320804595947,
        -0.7629362940788269,
        -1
      ],
      "type": "VEC4"
    },
    {
      "bufferView": 1,
      "byteOffset": 10432,
      "componentType": 5126,
      "count": 229,
      "max": [
        1.0042699575424194,
        0.99590998888015747
      ],
      "min": [
        0.0052700000815093517,
        -0.0030900000128895044
      ],
      "type": "VEC2"
    },
    {
      "bufferView": 0,
      "byteOffset": 14880,
      "componentType": 5125,
      "count": 828,
      "max": [
        228
      ],
      "min": [
        0
      ],
      "type": "SCALAR"
    },
    {
      "bufferView": 2,
      "byteOffset": 36792,
      "componentType": 5126,
      "count": 1177,
      "max": [
        44.354019165039062,
        79.537376403808594,
        21.903640747070312
      ],
      "min": [
        -48.853439331054688,
        -64.852691650390625,
        -36.984748840332031
      ],
      "type": "VEC3"
    },
    {
      "bufferView": 2,
      "byteOffset": 50916,
      "componentType": 5126,
      "count": 1177,
      "max": [
        1,
        0.99999946355819702,
        1
      ],
      "min": [
        -1,
        -1,
        -1
      ],
      "type": "VEC3"
    },
    {
      "bufferView": 3,
      "byteOffset": 24528,
      "componentType": 5126,
      "count": 1177,
      "max": [
        1,
        1,
        1,
        1
      ],
      "min": [
        -1,
        -1,
        -1,
        -1
      ],
      "type": "VEC4"
    },
    {
      "bufferView": 1,
      "byteOffset": 12264,
      "componentType": 5126,
      "count": 1177,
      "max": [
        0.99949997663497925,
        0.99566000699996948
      ],
      "min": [
        -0.003160000080242753,
        0.0052700000815093517
      ],
      "type": "VEC2"
    },
    {
      "bufferView": 0,
      "byteOffset": 18192,
      "componentType": 5125,
      "count": 2835,
      "max": [
        1176
      ],
      "min": [
        0
      ],
      "type": "SCALAR"
    },
    {
      "bufferView": 2,
      "byteOffset": 65040,
      "componentType": 5126,
      "count": 388,
      "max": [
        49.691181182861328,
        152.55979919433594,
        36.231418609619141
      ],
      "min": [
        37.077850341796875,
        -0.1214200034737587,
        17.978689193725586
      ],
      "type": "VEC3"
    },
    {
      "bufferView": 2,
      "byteOffset": 69696,
      "componentType": 5126,
      "count": 388,
      "max": [
        1,
        0.92388147115707397,
        1
      ],
      "min": [
        -1,
        -0.92388147115707397,
        -1
      ],
      "type": "VEC3"
    },
    {
      "bufferView": 3,
      "byteOffset": 43360,
      "componentType": 5126,
      "count": 388,
      "max": [
        0.99998390674591064,
        1,
        0.97923707962036133,
        1
      ],
      "min": [
        -1,
        -1,
        -0.99993050098419189,
        -1
      ],
      "type": "VEC4"
    },
    {
      "bufferView": 1,
      "byteOffset": 21680,
      "componentType": 5126,
      "count": 388,
      "max": [
        1.0000900030136108,
        0.98611998558044434
      ],
      "min": [
        -0.0019199999514967203,
        0.0050800000317394733
      ],
      "type": "VEC2"
    },
    {
      "bufferView": 0,
      "byteOffset": 29532,
      "componentType": 5125,
      "count": 948,
      "max": [
        387
      ],
      "min": [
        0
      ],
      "type": "SCALAR"
    },
    {
      "bufferView": 2,
      "byteOffset": 74352,
      "componentType": 5126,
      "count": 28,
      "max": [
        11.297360420227051,
        -4.4972400665283203,
        -29.598409652709961
      ],
      "min": [
        -15.651209831237793,
        -16.176820755004883,
        -31.701129913330078
      ],
      "type": "VEC3"
    },
    {
      "bufferView": 2,
      "byteOffset": 74688,
      "componentType": 5126,
      "count": 28,
      "max": [
        0,
        1,
        1
      ],
      "min": [
        0,
        -1,
        -1
      ],
      "type": "VEC3"
    },
    {
      "bufferView": 3,
      "byteOffset": 49568,
      "componentType": 5126,
      "count": 28,
      "max": [
        1,
        2.8901379209855804e-06,
        3.8935303336984362e-07,
        1
      ],
      "min": [
        1,
        -7.0585492721875198e-06,
        -4.282070165118057e-07,
        -1
      ],
      "type": "VEC4"
    },
    {
      "bufferView": 1,
      "byteOffset": 24784,
      "componentType": 5126,
      "count": 28,
      "max": [
        0.99949997663497925,
        1.0008000135421753
      ],
      "min": [
        -0.00073999998858198524,
        0.0044999998062849045
      ],
      "type": "VEC2"
    },
    {
      "bufferView": 0,
      "byteOffset": 33324,
      "componentType": 5125,
      "count": 60,
      "max": [
        27
      ],
      "min": [
        0
      ],
      "type": "SCALAR"
    },
    {
      "bufferView": 2,
      "byteOffset": 75024,
      "componentType": 5126,
      "count": 185,
      "max": [
        69.935966491699219,
        -8.7786903381347656,
        26.345970153808594
      ],
      "min": [
        -74.404502868652344,
        -153.11917114257812,
        18.351119995117188
      ],
      "type": "VEC3"
    },
    {
      "bufferView": 2,
      "byteOffset": 77244,
      "componentType": 5126,
      "count": 185,
      "max": [
        0.68323421478271484,
        0.50540280342102051,
        0.99999994039535522
      ],
      "min": [
        -0.68323421478271484,
        -0.65958863496780396,
        0.52703088521957397
      ],
      "type": "VEC3"
    },
    {
      "bufferView": 3,
      "byteOffset": 50016,
      "componentType": 5126,
      "count": 185,
      "max": [
        0.0008444899576716125,
        0.0022831826936453581,
        0.69268959760665894,
        1
      ],
      "min": [
        -1,
        -0.92815393209457397,
        -0.76439887285232544,
        1
      ],
      "type": "VEC4"
    },
    {
      "bufferView": 1,
      "byteOffset": 25008,
      "componentType": 5126,
      "count": 185,
      "max": [
        1.0003600120544434,
        0.99975001811981201
      ],
      "min": [
        0.0013599999947473407,
        0.00073999998858198524
      ],
      "type": "VEC2"
    },
    {
      "bufferView": 0,
      "byteOffset": 33564,
      "componentType": 5125,
      "count": 564,
      "max": [
        184
      ],
      "min": [
        0
      ],
      "type": "SCALAR"
    }
  ],
  "asset": {
    "extras": {
      "author": "wholock982 (https://sketchfab.com/treksource)",
      "license": "CC-BY-NC-4.0 (http://creativecommons.org/licenses/by-nc/4.0/)",
      "source": "https://sketchfab.com/models/4be2738f840b4645be20a21a4dee129b",
      "title": "Enterprise Refit | Star Trek"
    },
    "generator": "Sketchfab-3.43.3",
    "version": "2.0"
  },
  "bufferViews": [
    {
      "buffer": 0,
      "byteLength": 35820,
      "byteOffset": 0,
      "name": "floatBufferViews",
      "target": 34963
    },
    {
      "buffer": 0,
      "byteLength": 26488,
      "byteOffset": 35820,
      "byteStride": 8,
      "name": "floatBufferViews",
      "target": 34962
    },
    {
      "buffer": 0,
      "byteLength": 79464,
      "byteOffset": 62308,
      "byteStride": 12,
      "name": "floatBufferViews",
      "target": 34962
    },
    {
      "buffer": 0,
      "byteLength": 52976,
      "byteOffset": 141772,
      "byteStride": 16,
      "name": "floatBufferViews",
      "target": 34962
    }
  ],
  "buffers": [
    {
      "byteLength": 194748,
      "uri": "scene.bin"
    }
  ],
  "images": [
    {
      "uri": "textures/Material.003_baseColor.png"
    },
    {
      "uri": "textures/Material.005_baseColor.png"
    },
    {
      "uri": "textures/Material_baseColor.png"
    },
    {
      "uri": "textures/Material.001_baseColor.png"
    },
    {
      "uri": "textures/Material.004_baseColor.png"
    },
    {
      "uri": "textures/Material.002_baseColor.png"
    }
  ],
  "materials": [
    {
      "doubleSided": true,
      "name": "Material.005",
      "pbrMetallicRoughness": {
        "baseColorFactor": [
          1,
          1,
          1,
          1
        ],
        "baseColorTexture": {
          "index": 1,
          "texCoord": 0
        },
        "metallicFactor": 1,
        "roughnessFactor": 1
      }
    },
    {
      "doubleSided": true,
      "name": "Material.001",
      "pbrMetallicRoughness": {
        "baseColorFactor": [
          1,
          1,
          1,
          1
        ],
        "baseColorTexture": {
          "index": 3,
          "texCoord": 0
        },
        "metallicFactor": 1,
        "roughnessFactor": 1
      }
    },
    {
      "doubleSided": true,
      "name": "Material.002",
      "pbrMetallicRoughness": {
        "baseColorFactor": [
          1,
          1,
          1,
          1
        ],
        "baseColorTexture": {
          "index": 5,
          "texCoord": 0
        },
        "metallicFactor": 1,
        "roughnessFactor": 1
      }
    },
    {
      "doubleSided": true,
      "name": "Material.003",
      "pbrMetallicRoughness": {
        "baseColorFactor": [
          1,
          1,
          1,
          1
        ],
        "baseColorTexture": {
          "index": 0,
          "texCoord": 0
        },
        "metallicFactor": 1,
        "roughnessFactor": 1
      }
    },
    {
      "doubleSided": true,
      "name": "Material.004",
      "pbrMetallicRoughness": {
        "baseColorFactor": [
          1,
          1,
          1,
          1
        ],
        "baseColorTexture": {
          "index": 4,
          "texCoord": 0
        },
        "metallicFactor": 1,
        "roughnessFactor": 1
      }
    },
    {
      "doubleSided": true,
      "name": "fca1",
      "pbrMetallicRoughness": {
        "baseColorFactor": [
          1,
          1,
          1,
          1
        ],
        "metallicFactor": 1,
        "roughnessFactor": 1
      }
    },
    {
      "doubleSided": true,
      "name": "Material",
      "pbrMetallicRoughness": {
        "baseColorFactor": [
          1,
          1,
          1,
          1
        ],
        "baseColorTexture": {
          "index": 2,
          "texCoord": 0
        },
        "metallicFactor": 1,
        "roughnessFactor": 1
      }
    }
  ],
  "meshes": [
    {
      "name": "saucert:6_0",
      "primitives": [
        {
          "attributes": {
            "NORMAL": 1,
            "POSITION": 0,
            "TANGENT": 2,
            "TEXCOORD_0": 3
          },
          "indices": 4,
          "material": 0,
          "mode": 4
        }
      ]
    },
    {
      "name": "saucert:5_0",
      "primitives": [
        {
          "attributes": {
            "NORMAL": 6,
            "POSITION": 5,
            "TANGENT": 7,
            "TEXCOORD_0": 8
          },
          "indices": 9,
          "material": 1,
          "mode": 4
        }
      ]
    },
    {
      "name": "saucert:4_0",
      "primitives": [
        {
          "attributes": {
            "NORMAL": 11,
            "POSITION": 10,
            "TANGENT": 12,
            "TEXCOORD_0": 13
          },
          "indices": 14,
          "material": 2,
          "mode": 4
        }
      ]
    },
    {
      "name": "saucert:3_0",
      "primitives": [
        {
          "attributes": {
            "NORMAL": 16,
            "POSITION": 15,
            "TANGENT": 17,
            "TEXCOORD_0": 18
          },
          "indices": 19,
          "material": 3,
          "mode": 4
        }
      ]
    },
    {
      "name": "saucert:2_0",
      "primitives": [
        {
          "attributes": {
            "NORMAL": 21,
            "POSITION": 20,
            "TANGENT": 22,
            "TEXCOORD_0": 23
          },
          "indices": 24,
          "material": 4,
          "mode": 4
        }
      ]
    },
    {
      "name": "saucert:1_0",
      "primitives": [
        {
          "attributes": {
            "NORMAL": 26,
            "POSITION": 25,
            "TANGENT": 27,
            "TEXCOORD_0": 28
          },
          "indices": 29,
          "material": 5,
          "mode": 4
        }
      ]
    },
    {
      "name": "saucert:0_0",
      "primitives": [
        {
          "attributes": {
            "NORMAL": 31,
            "POSITION": 30,
            "TANGENT": 32,
            "TEXCOORD_0": 33
          },
          "indices": 34,
          "material": 6,
          "mode": 4
        }
      ]
    }
  ],
  "nodes": [
    {
      "children": [
        1
      ],
      "name": "RootNode (gltf orientation matrix)",
      "rotation": [
        -0.70710678118654746,
        -0,
        -0,
        0.70710678118654757
      ]
    },
    {
      "children": [
        2
      ],
      "name": "RootNode (model correction matrix)"
    },
    {
      "children": [
        3
      ],
      "name": "Root"
    },
    {
      "children": [
        4
      ],
      "name": "noname"
    },
    {
      "children": [
        5
      ],
      "name": "Scene Root"
    },
    {
      "children": [
        6
      ],
      "matrix": [
        -1,
        0,
        0,
        0,
        -0,
        -1,
        0,
        0,
        0,
        0,
        1,
        0,
        4.92971,
        0.084950000000000012,
        -13.452500000000002,
        1
      ],
      "name": "saucert"
    },
    {
      "children": [
        7,
        9,
        11,
        13,
        15,
        17,
        19
      ],
      "name": "__NDL_MultiMtl_Node"
    },
    {
      "children": [
        8
      ],
      "matrix": [
        0.060280000000000007,
        0,
        0,
        0,
        0,
        0.060280000000000007,
        0,
        0,
        0,
        0,
        0.060280000000000007,
        0,
        4.92971,
        0.084950000000000012,
        13.452500000000002,
        1
      ],
      "name": "saucert:6"
    },
    {
      "mesh": 0,
      "name": "saucert:6_0"
    },
    {
      "children": [
        10
      ],
      "matrix": [
        0.060280000000000007,
        0,
        0,
        0,
        0,
        0.060280000000000007,
        0,
        0,
        0,
        0,
        0.060280000000000007,
        0,
        4.92971,
        0.084950000000000012,
        13.452500000000002,
        1
      ],
      "name": "saucert:5"
    },
    {
      "mesh": 1,
      "name": "saucert:5_0"
    },
    {
      "children": [
        12
      ],
      "matrix": [
        0.060280000000000007,
        0,
        0,
        0,
        0,
        0.060280000000000007,
        0,
        0,
        0,
        0,
        0.060280000000000007,
        0,
        4.92971,
        0.084950000000000012,
        13.452500000000002,
        1
      ],
      "name": "saucert:4"
    },
    {
      "mesh": 2,
      "name": "saucert:4_0"
    },
    {
      "children": [
        14
      ],
      "matrix": [
        0.060280000000000007,
        0,
        0,
        0,
        0,
        0.060280000000000007,
        0,
        0,
        0,
        0,
        0.060280000000000007,
        0,
        4.92971,
        0.084950000000000012,
        13.452500000000002,
        1
      ],
      "name": "saucert:3"
    },
    {
      "mesh": 3,
      "name": "saucert:3_0"
    },
    {
      "children": [
        16
      ],
      "matrix": [
        0.060280000000000007,
        0,
        0,
        0,
        0,
        0.060280000000000007,
        0,
        0,
        0,
        0,
        0.060280000000000007,
        0,
        4.92971,
        0.084950000000000012,
        13.452500000000002,
        1
      ],
      "name": "saucert:2"
    },
    {
      "mesh": 4,
      "name": "saucert:2_0"
    },
    {
      "children": [
        18
      ],
      "matrix": [
        0.060280000000000007,
        0,
        0,
        0,
        0,
        0.060280000000000007,
        0,
        0,
        0,
        0,
        0.060280000000000007,
        0,
        4.92971,
        0.084950000000000012,
        13.452500000000002,
        1
      ],
      "name": "saucert:1"
    },
    {
      "mesh": 5,
      "name": "saucert:1_0"
    },
    {
      "children": [
        20
      ],
      "matrix": [
        0.060280000000000007,
        0,
        0,
        0,
        0,
        0.060280000000000007,
        0,
        0,
        0,
        0,
        0.060280000000000007,
        0,
        4.92971,
        0.084950000000000012,
        13.452500000000002,
        1
      ],
      "name": "saucert:0"
    },
    {
      "mesh": 6,
      "name": "saucert:0_0"
    }
  ],
  "samplers": [
    {
      "magFilter": 9729,
      "minFilter": 9987,
      "wrapS": 10497,
      "wrapT": 10497
    }
  ],
  "scene": 0,
  "scenes": [
    {
      "name": "OSG_Scene",
      "nodes": [
        0
      ]
    }
  ],
  "textures": [
    {
      "sampler": 0,
      "source": 0
    },
    {
      "sampler": 0,
      "source": 1
    },
    {
      "sampler": 0,
      "source": 2
    },
    {
      "sampler": 0,
      "source": 3
    },
    {
      "sampler": 0,
      "source": 4
    },
    {
      "sampler": 0,
      "source": 5
    }
  ]
}

